<?xml version="1.0"?>
<svg version="1.1" id="圖層_1" xmlns="http://www.w3.org/2000/svg" x="0" y="0" viewBox="0 0 100 100" xml:space="preserve"><path d="M85.592 86.317H12.658a3.533 3.533 0 0 1-3.533-3.533V27.516a3.533 3.533 0 0 1 3.533-3.533h72.934a3.533 3.533 0 0 1 3.533 3.533v55.268a3.533 3.533 0 0 1-3.533 3.533z" fill="#333"/><path d="M41.933 18.936h-27.76V81.27h27.76c3.94.012 6.31-1.142 7.192 1.514v-59.81c-1.497-2.952-3.955-4.19-7.192-4.038z" fill="#666"/><path d="M56.317 18.936h27.76V81.27h-27.76c-3.94.012-6.31-1.142-7.192 1.514v-59.81c1.497-2.952 3.955-4.19 7.192-4.038z" fill="#666"/><path d="M41.933 16.917h-27.76v62.334h27.76c3.94.012 6.31.877 7.192 3.533v-61.83c-1.497-2.951-3.955-4.189-7.192-4.037z" fill="#b3b3b3"/><path d="M56.317 16.917h27.76v62.334h-27.76c-3.94.012-6.31.877-7.192 3.533v-61.83c1.497-2.951 3.955-4.189 7.192-4.037z" fill="#b3b3b3"/><path fill="#c33737" d="M28.41 70.503h-4.711v19.516l4.711-4.038 4.711 4.038V70.503z"/><path d="M41.933 14.898h-27.76v62.334h27.76c3.94.012 6.31 1.886 7.192 4.543V18.936c-1.497-2.952-3.955-4.19-7.192-4.038z" fill="#e0e0e0"/><path d="M56.317 14.898h27.76v62.334h-27.76c-3.94.012-6.31 1.886-7.192 4.543V18.936c1.497-2.952 3.955-4.19 7.192-4.038z" fill="#e0e0e0"/><metadata xmlns:d="https://loading.io/stock/"><d:name>book</d:name><d:tags>study,read,view,workbook,note,booklet,document,book,books</d:tags><d:license>pro</d:license><d:slug>clsotg</d:slug></metadata></svg>