<?xml version="1.0" encoding="utf-8"?>
<!-- Generator: Adobe Illustrator 16.0.0, SVG Export Plug-In . SVG Version: 6.00 Build 0)  -->
<!DOCTYPE svg PUBLIC "-//W3C//DTD SVG 1.1//EN" "http://www.w3.org/Graphics/SVG/1.1/DTD/svg11.dtd">
<svg version="1.1" id="Layer_1" xmlns="http://www.w3.org/2000/svg" xmlns:xlink="http://www.w3.org/1999/xlink" x="0px" y="0px"
	 width="246px" height="289px" viewBox="0 0 246 289" enable-background="new 0 0 246 289" xml:space="preserve"> 
<g fill="#F8C63F">
<!-- <g fill="#00674d"> -->
	<g>
		<path fill-rule="evenodd" clip-rule="evenodd" d="M170.712,271.248l63,0.072l-12.888-20.88h-11.736l-25.992-38.664l-12.384,0.072
			v6.48l8.928-0.072l25.992,38.664h11.592l4.896,7.92l-51.408-0.072V271.248z M113.112,246.696l-0.288,24.552h57.888v-6.48h-51.336
			l0.144-11.592h13.752l0.504-34.776l36.936-0.072v-6.48l-43.344,0.144l-0.504,34.704H113.112z"/>
		<path fill-rule="evenodd" clip-rule="evenodd" d="M162.072,253.896h14.4l-11.304-26.136h-3.096v9.216l4.536,10.44h-4.536V253.896z
			 M151.128,253.896h10.944v-6.48h-4.464l-0.072-13.176h3.384l1.152,2.736v-9.216h-11.016L151.128,253.896z"/>
		<g>
			<polygon fill-rule="evenodd" clip-rule="evenodd" points="131.472,128.616 100.008,177.144 92.232,177.144 127.512,122.712 			
				"/>
			<polygon fill-rule="evenodd" clip-rule="evenodd" points="137.736,138.048 112.176,177.144 104.4,177.144 133.848,132.216 			"/>
			<polygon fill-rule="evenodd" clip-rule="evenodd" points="143.856,147.192 124.272,177.144 116.568,177.144 139.968,141.432 			
				"/>
		</g>
		<g>
			<polygon fill-rule="evenodd" clip-rule="evenodd" points="141.048,157.848 173.448,207.24 181.44,207.24 145.08,151.872 			"/>
			<polygon fill-rule="evenodd" clip-rule="evenodd" points="134.568,167.424 160.992,207.24 168.912,207.24 138.528,161.52 			"/>
			<polygon fill-rule="evenodd" clip-rule="evenodd" points="128.232,176.784 148.464,207.24 156.456,207.24 132.264,170.808 			"/>
		</g>
		<g>
			<polygon fill-rule="evenodd" clip-rule="evenodd" points="138.816,200.832 76.896,200.472 72.648,206.88 143.208,207.24 			"/>
			<polygon fill-rule="evenodd" clip-rule="evenodd" points="132.552,190.536 83.664,190.464 79.344,196.872 136.944,196.944 			"/>
			<polygon fill-rule="evenodd" clip-rule="evenodd" points="126.576,180.528 90.432,180.528 86.112,186.864 129.528,186.936 			"/>
		</g>
		<polygon fill-rule="evenodd" clip-rule="evenodd" points="35.28,245.76 127.08,103.848 218.376,245.76 210.672,245.76 
			127.08,115.8 43.056,245.76 		"/>
		<path fill-rule="evenodd" clip-rule="evenodd" d="M72,212.136h16.344l-5.256,15.48l12.168,0.072l5.328-15.48l18.936-0.144
			l-0.072,59.184H86.112l3.672-19.944l-16.992-0.072l-0.792,1.8v-8.352l25.56,0.216l-3.672,19.872h19.08l0.072-46.152h-7.848
			l-5.328,15.624l-25.776-0.216l5.184-15.408h-6.264L72,220.2V212.136z M31.392,251.664l12.384-0.144l25.776-39.384H72v8.064
			l-24.696,37.728l-12.24,0.144l-4.104,6.768l28.656,0.072l9-20.232H72v8.352l-8.136,18.36L19.44,271.32L31.392,251.664z"/>
	</g>
	<g>
		<path fill-rule="evenodd" clip-rule="evenodd" d="M127.584,14.784c0,0-0.36,1.656-1.008,2.808
			c-0.72,1.152-1.368,2.232-2.376,3.312c-1.008,1.008-1.224,2.664-1.224,3.888c-0.072,1.224,0.072,1.224,0.432,3.384
			c0.432,2.232,0.936,1.872,1.224,3.168c0.216,1.296,0.216,2.304-0.432,3.096c-0.648,0.72-1.224,0.864-2.16,0.792
			c-0.936,0-1.296-0.288-1.512-1.08c-0.216-0.792,0.216-1.44,0.648-2.88c0.36-1.44,0.648-2.016,0.072-3.168s-1.296-2.592-1.296-3.24
			c0-0.648-0.072-1.296-0.072-1.296s-1.152,1.368-1.296,2.592c-0.144,1.224,0.504,1.944-0.072,3.168
			c-0.648,1.224-1.512,1.872-2.304,3.384c-0.792,1.512-0.792,2.304-0.792,3.024c0,0.72,0.36,3.24,2.376,5.976
			c2.088,2.736,4.752,3.888,8.712,3.816c3.96,0,6.336-1.08,8.208-3.024c1.872-1.944,2.88-3.816,2.952-5.112
			c0.072-1.296,0.216-3.312-0.216-4.104c-0.36-0.864-1.08-1.656-1.728-3.456c-0.72-1.8-0.648-2.736-0.648-3.528
			s-0.216-0.72-0.216-0.72s-0.72,0.504-1.368,1.584c-0.576,1.008-0.936,1.872-0.792,3.24c0.216,1.368,0.36,1.368,0.504,2.448
			c0.144,1.008-0.072,1.656-0.432,1.944c-0.288,0.288-0.648,0.648-1.656,0.648c-0.936,0.072-1.512-0.504-1.728-1.224
			c-0.216-0.72-0.288-1.44,0.144-2.88c0.504-1.368,1.224-3.456,1.296-4.608c0.072-1.224,0.216-1.584-0.792-3.312
			c-1.008-1.656-1.44-2.304-1.512-3.528C128.304,17.448,128.376,16.872,127.584,14.784z"/>
		<path fill-rule="evenodd" clip-rule="evenodd" d="M126.576,82.104c8.424,0,15.336-6.912,15.336-15.408
			c0-8.496-6.912-15.408-15.336-15.408c-8.424,0-15.336,6.912-15.336,15.408C111.24,75.192,118.152,82.104,126.576,82.104z"/>
		<path fill-rule="evenodd" clip-rule="evenodd" d="M150.192,73.536c-0.792,11.448-11.088,20.52-23.616,20.52
			c-12.528,0-22.824-9.072-23.616-20.52c3.888,8.496,13.032,14.472,23.616,14.472S146.304,82.032,150.192,73.536z"/>
	</g>
</g>
</svg>
