<?xml version="1.0" encoding="iso-8859-1"?>
<!-- Generator: Adobe Illustrator 19.0.0, SVG Export Plug-In . SVG Version: 6.00 Build 0)  -->
<svg fill='#fff' version="1.1" id="Layer_1" xmlns="http://www.w3.org/2000/svg" xmlns:xlink="http://www.w3.org/1999/xlink" x="0px" y="0px"
	 viewBox="0 0 512 512" style="enable-background:new 0 0 512 512;" xml:space="preserve">
<g>
	<g>
		<path d="M387.744,426.472L507.89,306.326l-5.222-5.221c-4.993-4.993-10.854-8.797-17.236-11.299l9.537-9.537l-5.221-5.221
			c-10.562-10.562-24.681-15.441-38.536-14.655c-7.897-7.356-17.593-11.705-27.623-13.044l0.31-0.31
			c-15.757-15.757-42.757-14.397-60.187,3.033l-22.592,22.592c0.46-3.168,0.668-6.397,0.582-9.668l-0.188-7.189H153.911
			l-74.194,74.194l-11.999-11.999L4.11,381.612L134.498,512l63.608-63.608l-11.825-11.825l10.095-10.095H387.744z M432.387,265.199
			c-5.046,2.401-9.777,5.678-13.949,9.85l-55.994,55.995h-32.291v14.767h38.407l60.32-60.32
			c12.112-12.112,30.844-13.673,44.663-4.677l-5.546,5.546c-0.329-0.006-0.656-0.024-0.985-0.024
			c-13.469,0-26.132,5.245-35.657,14.77L375.361,357.1h-75.356c-14.585,0-28.297-5.68-38.61-15.993l-20.543-20.543h44.779
			c0.958,0,1.912-0.024,2.861-0.071h54.75l48.412-48.412C402.655,261.082,419.108,258.793,432.387,265.199z M332.785,297.768
			l3.628,0.492l37.745-37.746c6.642-6.642,15.213-9.939,23.21-9.71c-5.875,2.455-11.38,6.06-16.155,10.835l-44.086,44.087h-13.491
			c0.741-0.684,1.469-1.388,2.179-2.117c1.871-1.922,3.578-3.956,5.136-6.078C332.091,297.675,332.769,297.766,332.785,297.768z
			 M134.498,491.117L24.993,381.612l42.725-42.725l1.557,1.557l-0.039,0.039l106.564,106.564l0.039-0.039l1.384,1.383
			L134.498,491.117z M175.84,426.126l-85.681-85.681l69.869-69.869H326.52c-1.251,8.528-5.135,16.42-11.283,22.732
			c-7.294,7.489-16.895,11.843-27.244,12.42h-50.366v0.071h-32.423l45.752,45.751c13.102,13.103,30.522,20.318,49.052,20.318h81.472
			l60.32-60.32c6.735-6.735,15.69-10.444,25.214-10.444c7.014,0,13.718,2.011,19.456,5.762L381.627,411.706H190.259L175.84,426.126z
			"/>
	</g>
</g>
<g>
	<g>
		<rect x="303.987" y="331.041" width="13.298" height="14.767"/>
	</g>
</g>
<g>
	<g>
		<path d="M79.426,366.911c-3.859-3.861-8.992-5.987-14.451-5.987s-10.592,2.126-14.452,5.986c-3.86,3.86-5.986,8.993-5.986,14.452
			c0,5.459,2.125,10.591,5.985,14.452c3.86,3.86,8.993,5.986,14.452,5.986c5.459,0,10.592-2.126,14.452-5.986
			C87.394,387.844,87.394,374.878,79.426,366.911z M68.986,385.371c-1.071,1.071-2.496,1.662-4.01,1.662
			c-1.515,0-2.939-0.591-4.01-1.662c-1.071-1.071-1.661-2.496-1.661-4.01c0-1.515,0.59-2.939,1.662-4.01
			c1.071-1.071,2.495-1.662,4.01-1.662c1.515,0,2.939,0.591,4.01,1.662C71.196,379.563,71.196,383.16,68.986,385.371z"/>
	</g>
</g>
<g>
	<g>
		<path d="M283.679,65.171c-36.818,0-66.773,29.954-66.773,66.773c0,36.819,29.955,66.773,66.773,66.773
			s66.772-29.954,66.772-66.773C350.451,95.124,320.498,65.171,283.679,65.171z M283.679,183.951
			c-28.676,0-52.006-23.329-52.006-52.006s23.33-52.006,52.006-52.006s52.005,23.329,52.005,52.006S312.355,183.951,283.679,183.951
			z"/>
	</g>
</g>
<g>
	<g>
		<path d="M297.535,128.529c-2.296-1.11-4.758-1.944-7.387-2.5c-2.628-0.555-5.092-1.11-7.387-1.667
			c-2.296-0.555-4.203-1.277-5.721-2.166c-1.518-0.889-2.277-2.296-2.277-4.221c0-1.925,0.759-3.221,2.277-3.888
			c1.518-0.667,3.35-1,5.498-1c7.316,0,13.352,2.296,18.107,6.887V107.2c-1.776-1.962-6.108-3.406-12.997-4.332V90.095
			c0-0.222-0.148-0.333-0.444-0.333h-9.663c-0.296,0-0.445,0.148-0.445,0.444v12.553c-2.295,0.852-4.61,2.101-6.942,3.749
			c-2.333,1.648-4,3.452-4.999,5.415c-1,1.962-1.499,4.406-1.499,7.331s0.76,5.424,2.277,7.499c2.69,3.673,7.076,6.191,13.163,7.554
			l7.443,1.667c2.28,0.511,4.184,1.157,5.71,1.937c1.526,0.782,2.288,1.95,2.288,3.506c0,2.773-1.763,4.699-5.291,5.777
			c-1.454,0.444-3.689,0.666-6.705,0.666c-4.22,0-8.035-1-11.441-3c-3.406-1.999-5.999-4.777-7.775-8.331v14.996
			c4.591,2.792,9.331,4.903,14.218,6.332l0.109,11.33c0.002,0.222,0.113,0.333,0.334,0.333h9.663c0.297,0,0.445-0.148,0.445-0.444
			v-10.442c6.295-2.096,10.909-4.999,13.844-8.709c2.398-3.031,3.595-6.016,3.595-8.954
			C305.533,135.255,302.867,131.109,297.535,128.529z"/>
	</g>
</g>
<g>
	<g>
		<path d="M426.261,48.006V23.328h-29.389V0H59.767v167.877h29.39v23.328h25.97v24.677h337.105V48.006H426.261z M89.157,153.11
			H74.534V14.767h307.571v8.562H89.157V153.11z M115.127,176.439h-11.203V38.095h307.57v9.91H115.127V176.439z M437.465,201.116
			H129.894V62.772h307.571V201.116z"/>
	</g>
</g>
<g>
	<g>
		<rect x="89.161" y="238.138" width="14.767" height="16.119"/>
	</g>
</g>
<g>
	<g>
		<rect x="276.295" y="453.388" width="14.767" height="16.119"/>
	</g>
</g>
<g>
	<g>
		<rect x="450.532" y="398.879" width="14.767" height="16.119"/>
	</g>
</g>
<g>
	<g>
		<rect x="427.349" y="477.566" width="14.767" height="16.12"/>
	</g>
</g>
<g>
	<g>
		<rect x="23.666" y="86.614" width="14.767" height="16.12"/>
	</g>
</g>
<g>
	<g>
		<rect x="11.64" y="212.434" width="14.767" height="16.12"/>
	</g>
</g>
<g>
</g>
<g>
</g>
<g>
</g>
<g>
</g>
<g>
</g>
<g>
</g>
<g>
</g>
<g>
</g>
<g>
</g>
<g>
</g>
<g>
</g>
<g>
</g>
<g>
</g>
<g>
</g>
<g>
</g>
</svg>
