<svg xmlns="http://www.w3.org/2000/svg" width="1440" height="900"><path d="M647,362L826,219L457,88Z" fill="#86d0bb" stroke="#86d0bb" stroke-width="1.51"/><path d="M826,219L965,-53L457,88Z" fill="#8fd2bd" stroke="#8fd2bd" stroke-width="1.51"/><path d="M965,-53L481,-317L457,88Z" fill="#a6dccd" stroke="#a6dccd" stroke-width="1.51"/><path d="M457,88L157,358L647,362Z" fill="#94d5c4" stroke="#94d5c4" stroke-width="1.51"/><path d="M40,88L157,358L457,88Z" fill="#afe1d5" stroke="#afe1d5" stroke-width="1.51"/><path d="M308,-246L157,-49L457,88Z" fill="#bfe7df" stroke="#bfe7df" stroke-width="1.51"/><path d="M481,-317L308,-246L457,88Z" fill="#bbe5dd" stroke="#bbe5dd" stroke-width="1.51"/><path d="M647,362L895,634L826,219Z" fill="#68c2a2" stroke="#68c2a2" stroke-width="1.51"/><path d="M1279,233L1264,47L965,-53Z" fill="#7cc19b" stroke="#7cc19b" stroke-width="1.51"/><path d="M621,716L895,634L647,362Z" fill="#5dbc98" stroke="#5dbc98" stroke-width="1.51"/><path d="M171,633L621,716L647,362Z" fill="#73c5a6" stroke="#73c5a6" stroke-width="1.51"/><path d="M157,358L171,633L647,362Z" fill="#88d0ba" stroke="#88d0ba" stroke-width="1.51"/><path d="M40,88L55,280L157,358Z" fill="#b2e2d7" stroke="#b2e2d7" stroke-width="1.51"/><path d="M965,-53L870,-397L481,-317Z" fill="#a6dbca" stroke="#a6dbca" stroke-width="1.51"/><path d="M1264,47L1089,-220L965,-53Z" fill="#8ccaa9" stroke="#8ccaa9" stroke-width="1.51"/><path d="M157,-49L40,88L457,88Z" fill="#bee7de" stroke="#bee7de" stroke-width="1.51"/><path d="M-116,-255L40,88L157,-49Z" fill="#d3efeb" stroke="#d3efeb" stroke-width="1.51"/><path d="M1089,-220L870,-397L965,-53Z" fill="#9ad3ba" stroke="#9ad3ba" stroke-width="1.51"/><path d="M1279,233L965,-53L826,219Z" fill="#7bc7a4" stroke="#7bc7a4" stroke-width="1.51"/><path d="M895,634L1279,233L826,219Z" fill="#61bd96" stroke="#61bd96" stroke-width="1.51"/><path d="M-31,691L171,633L157,358Z" fill="#94d2ba" stroke="#94d2ba" stroke-width="1.51"/><path d="M895,634L1251,668L1279,233Z" fill="#4bae7d" stroke="#4bae7d" stroke-width="1.51"/><path d="M1178,905L1251,668L895,634Z" fill="#3aa469" stroke="#3aa469" stroke-width="1.51"/><path d="M539,967L823,938L621,716Z" fill="#4fab7b" stroke="#4fab7b" stroke-width="1.51"/><path d="M621,716L823,938L895,634Z" fill="#4caf7f" stroke="#4caf7f" stroke-width="1.51"/><path d="M196,923L539,967L621,716Z" fill="#62b387" stroke="#62b387" stroke-width="1.51"/><path d="M1279,233L1466,343L1264,47Z" fill="#65b186" stroke="#65b186" stroke-width="1.51"/><path d="M1264,47L1593,-87L1089,-220Z" fill="#83be97" stroke="#83be97" stroke-width="1.51"/><path d="M1251,668L1466,343L1279,233Z" fill="#4ca877" stroke="#4ca877" stroke-width="1.51"/><path d="M171,633L196,923L621,716Z" fill="#74c09a" stroke="#74c09a" stroke-width="1.51"/><path d="M55,280L-31,691L157,358Z" fill="#9ed8c7" stroke="#9ed8c7" stroke-width="1.51"/><path d="M-355,559L-31,691L55,280Z" fill="#a0d8c5" stroke="#a0d8c5" stroke-width="1.51"/><path d="M40,88L-344,106L55,280Z" fill="#c2e8e1" stroke="#c2e8e1" stroke-width="1.51"/><path d="M308,-246L-116,-255L157,-49Z" fill="#d5f0ed" stroke="#d5f0ed" stroke-width="1.51"/><path d="M481,-317L-116,-255L308,-246Z" fill="#d1eeea" stroke="#d1eeea" stroke-width="1.51"/><path d="M-393,-407L-116,-255L481,-317Z" fill="#e1f4f4" stroke="#e1f4f4" stroke-width="1.51"/><path d="M-31,691L196,923L171,633Z" fill="#87c8a5" stroke="#87c8a5" stroke-width="1.51"/><path d="M1251,668L1418,688L1466,343Z" fill="#3c9f66" stroke="#3c9f66" stroke-width="1.51"/><path d="M823,938L1178,905L895,634Z" fill="#3da46a" stroke="#3da46a" stroke-width="1.51"/><path d="M906,1234L1178,905L823,938Z" fill="#31965a" stroke="#31965a" stroke-width="1.51"/><path d="M1423,814L1418,688L1251,668Z" fill="#2f9757" stroke="#2f9757" stroke-width="1.51"/><path d="M-116,-255L-344,106L40,88Z" fill="#d7f0ee" stroke="#d7f0ee" stroke-width="1.51"/><path d="M1466,343L1593,-87L1264,47Z" fill="#6db187" stroke="#6db187" stroke-width="1.51"/><path d="M1089,-220L1590,-418L870,-397Z" fill="#96caa9" stroke="#96caa9" stroke-width="1.51"/><path d="M1769,-106L1593,-87L1860,306Z" fill="#6aa27e" stroke="#6aa27e" stroke-width="1.51"/><path d="M1418,688L1680,507L1466,343Z" fill="#3c9a65" stroke="#3c9a65" stroke-width="1.51"/><path d="M1178,905L1423,814L1251,668Z" fill="#2e9654" stroke="#2e9654" stroke-width="1.51"/><path d="M-393,-407L-417,189L-344,106Z" fill="#e0f3f1" stroke="#e0f3f1" stroke-width="1.51"/><path d="M-344,106L-417,189L55,280Z" fill="#c4e9e3" stroke="#c4e9e3" stroke-width="1.51"/><path d="M-417,189L-355,559L55,280Z" fill="#b5e1d7" stroke="#b5e1d7" stroke-width="1.51"/><path d="M3,1315L300,1192L196,923Z" fill="#6ea983" stroke="#6ea983" stroke-width="1.51"/><path d="M539,967L551,1259L823,938Z" fill="#489f70" stroke="#489f70" stroke-width="1.51"/><path d="M196,923L300,1192L539,967Z" fill="#64ab82" stroke="#64ab82" stroke-width="1.51"/><path d="M-101,975L196,923L-31,691Z" fill="#84c09b" stroke="#84c09b" stroke-width="1.51"/><path d="M-268,884L-101,975L-31,691Z" fill="#8cc4a0" stroke="#8cc4a0" stroke-width="1.51"/><path d="M300,1192L551,1259L539,967Z" fill="#54a075" stroke="#54a075" stroke-width="1.51"/><path d="M1178,905L1480,1319L1423,814Z" fill="#1b823e" stroke="#1b823e" stroke-width="1.51"/><path d="M1423,814L1680,507L1418,688Z" fill="#2d9457" stroke="#2d9457" stroke-width="1.51"/><path d="M551,1259L906,1234L823,938Z" fill="#3a9563" stroke="#3a9563" stroke-width="1.51"/><path d="M1683,-343L1590,-418L1593,-87Z" fill="#82b18f" stroke="#82b18f" stroke-width="1.51"/><path d="M1593,-87L1590,-418L1089,-220Z" fill="#87bb97" stroke="#87bb97" stroke-width="1.51"/><path d="M-355,559L-268,884L-31,691Z" fill="#97d0b2" stroke="#97d0b2" stroke-width="1.51"/><path d="M1769,-106L1683,-343L1593,-87Z" fill="#7bac8a" stroke="#7bac8a" stroke-width="1.51"/><path d="M1860,306L1593,-87L1466,343Z" fill="#5ca279" stroke="#5ca279" stroke-width="1.51"/><path d="M-116,-255L-393,-407L-344,106Z" fill="#e5f5f7" stroke="#e5f5f7" stroke-width="1.51"/><path d="M870,-397L-393,-407L481,-317Z" fill="#cdece6" stroke="#cdece6" stroke-width="1.51"/><path d="M1590,-418L-393,-407L870,-397Z" fill="#b1dfd1" stroke="#b1dfd1" stroke-width="1.51"/><path d="M906,1234L1147,1262L1178,905Z" fill="#248a4c" stroke="#248a4c" stroke-width="1.51"/><path d="M1423,814L1845,964L1680,507Z" fill="#208647" stroke="#208647" stroke-width="1.51"/><path d="M551,1259L1147,1262L906,1234Z" fill="#2f8757" stroke="#2f8757" stroke-width="1.51"/><path d="M1680,507L1860,306L1466,343Z" fill="#44976a" stroke="#44976a" stroke-width="1.51"/><path d="M1845,964L1860,306L1680,507Z" fill="#2c8553" stroke="#2c8553" stroke-width="1.51"/><path d="M551,1259L1480,1319L1147,1262Z" fill="#217d47" stroke="#217d47" stroke-width="1.51"/><path d="M300,1192L3,1315L551,1259Z" fill="#5f9a77" stroke="#5f9a77" stroke-width="1.51"/><path d="M-101,975L3,1315L196,923Z" fill="#79b18b" stroke="#79b18b" stroke-width="1.51"/><path d="M-306,1185L3,1315L-101,975Z" fill="#7cad8b" stroke="#7cad8b" stroke-width="1.51"/><path d="M-268,884L-306,1185L-101,975Z" fill="#86b995" stroke="#86b995" stroke-width="1.51"/><path d="M-355,559L-306,1185L-268,884Z" fill="#90c4a0" stroke="#90c4a0" stroke-width="1.51"/><path d="M-417,189L-306,1185L-355,559Z" fill="#a0d6ba" stroke="#a0d6ba" stroke-width="1.51"/><path d="M1147,1262L1480,1319L1178,905Z" fill="#187d3c" stroke="#187d3c" stroke-width="1.51"/><path d="M3,1315L1480,1319L551,1259Z" fill="#3b8861" stroke="#3b8861" stroke-width="1.51"/><path d="M1715,1202L1845,964L1423,814Z" fill="#0d7433" stroke="#0d7433" stroke-width="1.51"/><path d="M1480,1319L1715,1202L1423,814Z" fill="#087331" stroke="#087331" stroke-width="1.51"/></svg>