<?xml version="1.0"?>
<svg fill='#fff' xmlns="http://www.w3.org/2000/svg" viewBox="0 0 64 64" width="512" height="512"><g id="money-coin"><path d="M57,36H56V27a3,3,0,0,0-3-3h-.129l1.615-3.457A1,1,0,0,0,54,19.214L15.932,1.464a1,1,0,0,0-1.328.483L4.266,24.1A3,3,0,0,0,2,27V59a3,3,0,0,0,3,3H53a3,3,0,0,0,3-3V50h1a5.006,5.006,0,0,0,5-5V41A5.006,5.006,0,0,0,57,36ZM15.993,3.7,52.25,20.6,50.664,24H46.59a7.991,7.991,0,0,1-.975-4.652,1,1,0,0,0-.572-1L22.353,7.764a1,1,0,0,0-1.137.206,7.907,7.907,0,0,1-6.466,2.355.994.994,0,0,0-1.006.572l-3.82,8.2a1,1,0,0,0,.206,1.136A7.968,7.968,0,0,1,12.276,24H6.52ZM25.183,24a3.99,3.99,0,1,1,7.731,0Zm6.4-6.417A6,6,0,0,0,23.133,24H14.327a9.974,9.974,0,0,0-2.3-4.674l3.245-6.965a9.886,9.886,0,0,0,6.857-2.5l21.456,10A10,10,0,0,0,44.37,24h-9.4A5.976,5.976,0,0,0,31.581,17.583ZM54,59a1,1,0,0,1-1,1H5a1,1,0,0,1-1-1V27a1,1,0,0,1,1-1H53a1,1,0,0,1,1,1v9H49a5.006,5.006,0,0,0-5,5v4a5.006,5.006,0,0,0,5,5h5Zm6-14a3,3,0,0,1-3,3H49a3,3,0,0,1-3-3V41a3,3,0,0,1,3-3h8a3,3,0,0,1,3,3Z"/><path d="M51,40a3,3,0,1,0,3,3A3,3,0,0,0,51,40Zm0,4a1,1,0,1,1,1-1A1,1,0,0,1,51,44Z"/><path d="M30.861,42.2C33.027,41.7,34,41.018,34,40V35c0-2.708-8.392-3-12-3-10.831,0-12,2.1-12,3v2.618C7.22,38.129,6,38.856,6,40v5c0,.527.015,1.98,5.739,2.657C8,48.389,8,49.479,8,50v5c0,2.708,8.392,3,12,3s12-.292,12-3V52.679C37.985,52,38,50.609,38,50V45C38,44.433,37.986,42.8,30.861,42.2ZM30,45v-.857a23.731,23.731,0,0,1,5.381.86,25.143,25.143,0,0,1-5.667.876A1.292,1.292,0,0,0,30,45Zm-1.151-4.449A47.373,47.373,0,0,1,22,41c-.649,0-1.289-.01-1.967-.029-4.876-.162-7.408-.862-8.033-1.234V36.872C14.711,37.858,19.5,38,22,38c5.354,0,8.342-.513,10-1.141v2.87A9.809,9.809,0,0,1,28.849,40.551ZM22,34a33.634,33.634,0,0,1,9.4,1A33.634,33.634,0,0,1,22,36a33.634,33.634,0,0,1-9.395-1A33.634,33.634,0,0,1,22,34ZM10,39.654V40a1.313,1.313,0,0,0,.057.365,12.529,12.529,0,0,1-1.431-.359A12.028,12.028,0,0,1,10,39.654ZM8,41.872C10.711,42.858,15.5,43,18,43c.69,0,1.371-.01,2.06-.03h0c.63.02,1.28.03,1.94.03a52.225,52.225,0,0,0,6-.324v2.055c-.473.274-2.174.856-6.073,1.131a55.559,55.559,0,0,1-6.877.059c-4.292-.213-6.474-.841-7.05-1.186Zm6,7.462V50a1.3,1.3,0,0,0,.165.69A19.184,19.184,0,0,1,10.622,50,17.781,17.781,0,0,1,14,49.334ZM20,56c-5.813,0-9.219-.778-10-1.262V51.872C12.711,52.858,17.5,53,20,53c1,0,2.031-.027,3.03-.08h0c.993.052,1.992.08,2.97.08,1.391,0,2.718-.06,4-.15v1.888C29.219,55.222,25.812,56,20,56Zm10.907-5.216C29.4,50.925,27.7,51,26,51q-1.438,0-2.95-.079c-4.292-.213-6.474-.841-7.05-1.186V47.947c.669.023,1.342.053,2,.053,1.377,0,2.721-.047,4-.139,1.28.092,2.624.139,4,.139,2.5,0,7.289-.142,10-1.128v2.86C35.575,49.982,34.156,50.483,30.907,50.784Z"/></g></svg>
